<?xml version="1.0" standalone="no"?>
<!DOCTYPE svg PUBLIC "-//W3C//DTD SVG 20010904//EN"
 "http://www.w3.org/TR/2001/REC-SVG-20010904/DTD/svg10.dtd">
<svg version="1.0" xmlns="http://www.w3.org/2000/svg"
 width="200" height="200" viewBox="0 0 512.000000 512.000000"
 preserveAspectRatio="xMidYMid meet">

<g transform="translate(0.000000,512.000000) scale(0.100000,-0.100000)"
fill="#000000" stroke="none">
<path fill="#f7b733" d="M2400 4683 c-648 -49 -1244 -398 -1612 -945 -170 -253 -286 -556
-335 -873 -23 -150 -23 -460 0 -610 94 -607 423 -1126 929 -1466 253 -171 555
-287 873 -336 150 -23 460 -23 610 0 607 94 1126 423 1467 929 390 581 465
1345 194 1990 l-44 106 200 199 c211 209 238 245 238 323 0 79 -26 114 -241
326 -197 195 -206 202 -259 214 -107 24 -150 -2 -359 -213 -114 -115 -123
-127 -110 -144 8 -10 -8 -1 -36 20 -266 200 -450 300 -704 383 -242 80 -550
117 -811 97z m369 -749 c121 -17 304 -75 412 -129 79 -40 205 -120 215 -137 7
-11 -823 -848 -841 -848 -5 0 -93 83 -195 184 -187 186 -214 206 -285 206 -71
0 -97 -19 -303 -223 -112 -111 -209 -213 -216 -227 -22 -42 -27 -96 -15 -147
11 -45 37 -73 438 -476 278 -279 440 -434 466 -447 62 -30 123 -35 191 -15 59
16 61 19 665 622 l606 605 11 -44 c38 -151 39 -416 3 -583 -105 -483 -444
-868 -907 -1028 -167 -58 -256 -72 -454 -72 -198 0 -287 14 -454 72 -469 162
-809 553 -912 1048 -26 127 -26 403 0 530 103 495 443 886 912 1048 87 30 209
59 299 70 78 10 268 5 364 -9z"/>
</g>
</svg>
